<svg width="133" height="84" viewBox="0 0 133 84" fill="none" xmlns="http://www.w3.org/2000/svg">
<path d="M4.28951 37.5097H23.9695V32.7097H9.32951V2.46971H4.28951V37.5097Z" fill="#8710FF"/>
<path d="M29.7426 37.5097H50.8626V32.7097H34.7826V22.1497H50.3826V17.3497H34.7826V7.26971H50.8626V2.46971H29.7426V37.5097Z" fill="#8710FF"/>
<path d="M68.5416 7.26971H78.2376V2.46971H53.7576V7.26971H63.4536V37.5097H68.5416V7.26971Z" fill="#8710FF"/>
<path d="M89.2908 2.46971H84.2508L79.9308 13.0297L84.2028 14.9497L89.2908 2.46971Z" fill="#8710FF"/>
<path d="M112.597 11.5897C112.597 5.82971 107.557 1.60571 101.317 1.60571C95.269 1.60571 90.517 5.58971 90.517 11.1097C90.517 17.1097 94.597 20.2297 99.157 21.6217C100.357 22.0057 101.845 22.3897 102.997 22.6297C105.397 23.1097 108.517 24.3097 108.517 27.9097C108.517 31.2697 105.877 33.5257 101.797 33.5257C98.197 33.5257 94.501 30.7417 94.597 25.9897L89.557 27.9097C89.653 33.2857 95.269 38.3737 101.797 38.3737C109.237 38.3737 113.557 33.1897 113.557 27.9097C113.557 21.9097 109.717 18.9337 104.917 17.7817C103.669 17.4937 102.373 17.2057 101.077 16.8697C97.237 15.8617 95.557 13.9897 95.557 11.3497C95.557 8.46971 97.765 6.30971 101.317 6.30971C104.677 6.30971 107.317 8.70971 107.317 11.5897H112.597Z" fill="#8710FF"/>
<path d="M2.36951 65.0377C2.36951 75.3097 10.0495 83.4697 20.6095 83.4697C25.8895 83.4697 31.1695 81.0697 34.5295 76.7497L31.1695 73.3897C28.7695 76.7497 25.4095 78.7177 20.8495 78.7177C12.4495 78.7177 7.45751 72.7177 7.45751 64.9897C7.45751 57.2617 12.4495 51.2617 20.6095 51.2617C25.1695 51.2617 28.5295 53.2297 30.9295 56.5897L34.2895 53.2297C30.9295 48.9097 25.6495 46.5097 20.3695 46.5097C10.0495 46.5097 2.36951 54.7177 2.36951 65.0377Z" fill="#8710FF"/>
<path d="M37.432 64.9897C37.432 75.2137 45.688 83.4697 55.912 83.4697C66.136 83.4697 74.392 75.2137 74.392 64.9897C74.392 54.7657 66.136 46.5097 55.912 46.5097C45.688 46.5097 37.432 54.7657 37.432 64.9897ZM42.472 65.0377C42.472 57.0697 47.992 51.3097 55.912 51.3097C63.832 51.3097 69.304 57.0697 69.304 65.0377C69.304 72.9097 63.832 78.6697 55.912 78.6697C47.992 78.6697 42.472 72.9097 42.472 65.0377Z" fill="#8710FF"/>
<path d="M80.1333 82.5097H88.0533C98.3733 82.5097 106.053 75.3097 106.053 64.9897C106.053 54.6697 98.3733 47.4697 88.0533 47.4697H80.1333V82.5097ZM88.2933 52.2697C96.2133 52.2697 101.013 57.0697 101.013 64.9897C101.013 72.9097 96.2133 77.7097 88.2933 77.7097H85.1733V52.2697H88.2933Z" fill="#8710FF"/>
<path d="M111.821 82.5097H132.941V77.7097H116.861V67.1497H132.461V62.3497H116.861V52.2697H132.941V47.4697H111.821V82.5097Z" fill="#8710FF"/>
<path d="M2.31941 36.2861H21.9994V31.4861H7.35941V1.24608H2.31941V36.2861Z" fill="black"/>
<path d="M27.7725 36.2861H48.8925V31.4861H32.8125V20.9261H48.4125V16.1261H32.8125V6.04608H48.8925V1.24608H27.7725V36.2861Z" fill="black"/>
<path d="M66.5715 6.04608H76.2675V1.24608H51.7875V6.04608H61.4835V36.2861H66.5715V6.04608Z" fill="black"/>
<path d="M87.3207 1.24608H82.2807L77.9607 11.8061L82.2327 13.7261L87.3207 1.24608Z" fill="black"/>
<path d="M110.627 10.3661C110.627 4.60608 105.587 0.38208 99.3469 0.38208C93.2989 0.38208 88.5469 4.36608 88.5469 9.88608C88.5469 15.8861 92.6269 19.0061 97.1869 20.3981C98.3869 20.7821 99.8749 21.1661 101.027 21.4061C103.427 21.8861 106.547 23.0861 106.547 26.6861C106.547 30.0461 103.907 32.3021 99.8269 32.3021C96.2269 32.3021 92.5309 29.5181 92.6269 24.7661L87.5869 26.6861C87.6829 32.0621 93.2989 37.1501 99.8269 37.1501C107.267 37.1501 111.587 31.9661 111.587 26.6861C111.587 20.6861 107.747 17.7101 102.947 16.5581C101.699 16.2701 100.403 15.9821 99.1069 15.6461C95.2669 14.6381 93.5869 12.7661 93.5869 10.1261C93.5869 7.24608 95.7949 5.08608 99.3469 5.08608C102.707 5.08608 105.347 7.48608 105.347 10.3661H110.627Z" fill="black"/>
<path d="M0.399414 63.8141C0.399414 74.0861 8.07941 82.2461 18.6394 82.2461C23.9194 82.2461 29.1994 79.8461 32.5594 75.5261L29.1994 72.1661C26.7994 75.5261 23.4394 77.4941 18.8794 77.4941C10.4794 77.4941 5.48741 71.4941 5.48741 63.7661C5.48741 56.0381 10.4794 50.0381 18.6394 50.0381C23.1994 50.0381 26.5594 52.0061 28.9594 55.3661L32.3194 52.0061C28.9594 47.6861 23.6794 45.2861 18.3994 45.2861C8.07942 45.2861 0.399414 53.4941 0.399414 63.8141Z" fill="black"/>
<path d="M35.4619 63.7661C35.4619 73.9901 43.7179 82.2461 53.9419 82.2461C64.1659 82.2461 72.4219 73.9901 72.4219 63.7661C72.4219 53.5421 64.1659 45.2861 53.9419 45.2861C43.7179 45.2861 35.4619 53.5421 35.4619 63.7661ZM40.5019 63.8141C40.5019 55.8461 46.0219 50.0861 53.9419 50.0861C61.8619 50.0861 67.3339 55.8461 67.3339 63.8141C67.3339 71.6861 61.8619 77.4461 53.9419 77.4461C46.0219 77.4461 40.5019 71.6861 40.5019 63.8141Z" fill="black"/>
<path d="M78.1632 81.2861H86.0832C96.4032 81.2861 104.083 74.0861 104.083 63.7661C104.083 53.4461 96.4032 46.2461 86.0832 46.2461H78.1632V81.2861ZM86.3232 51.0461C94.2432 51.0461 99.0432 55.8461 99.0432 63.7661C99.0432 71.6861 94.2432 76.4861 86.3232 76.4861H83.2032V51.0461H86.3232Z" fill="black"/>
<path d="M109.851 81.2861H130.971V76.4861H114.891V65.9261H130.491V61.1261H114.891V51.0461H130.971V46.2461H109.851V81.2861Z" fill="black"/>
</svg>
