<svg width="235" height="40" viewBox="0 0 235 40" fill="none" xmlns="http://www.w3.org/2000/svg">
<path d="M2.67371 38.2461H7.71371V22.8861H22.3537V18.0861H7.71371V8.00609H23.7937V3.2061H2.67371V38.2461Z" fill="#8710FF"/>
<path d="M47.7843 27.9261C47.7843 31.5261 44.6643 34.4061 40.5843 34.4061C36.2643 34.4061 33.8643 31.5261 33.8643 27.9261V3.2061H28.8243V27.6861C28.8243 34.4061 33.1443 39.2061 39.8643 39.2061C42.5043 39.2061 46.3443 38.0061 47.7843 36.3261L48.0243 36.0861L48.2643 36.3261L48.9843 38.2461H52.8243V3.2061H47.7843V27.9261Z" fill="#8710FF"/>
<path d="M80.9655 29.1261L66.0375 3.2061H60.5175V38.2461H65.5095V11.8461L80.4375 38.2461H85.9575V3.2061H80.9655V29.1261Z" fill="#8710FF"/>
<path d="M91.7381 20.7741C91.7381 31.0461 99.4181 39.2061 109.978 39.2061C115.258 39.2061 120.538 36.8061 123.898 32.4861L120.538 29.1261C118.138 32.4861 114.778 34.4541 110.218 34.4541C101.818 34.4541 96.8261 28.4541 96.8261 20.7261C96.8261 12.9981 101.818 6.9981 109.978 6.9981C114.538 6.9981 117.898 8.96609 120.298 12.3261L123.658 8.9661C120.298 4.64609 115.018 2.24609 109.738 2.24609C99.4181 2.24609 91.7381 10.4541 91.7381 20.7741Z" fill="#8710FF"/>
<path d="M140.613 8.00609H150.309V3.2061H125.829V8.00609H135.525V38.2461H140.613V8.00609Z" fill="#8710FF"/>
<path d="M154.402 38.2461H161.122V33.4461H160.306V8.00609H161.122V3.2061H154.402V8.00609H155.218V33.4461H154.402V38.2461Z" fill="#8710FF"/>
<path d="M166.644 20.7261C166.644 30.9501 174.9 39.2061 185.124 39.2061C195.348 39.2061 203.604 30.9501 203.604 20.7261C203.604 10.5021 195.348 2.24609 185.124 2.24609C174.9 2.24609 166.644 10.5021 166.644 20.7261ZM171.684 20.7741C171.684 12.8061 177.204 7.04609 185.124 7.04609C193.044 7.04609 198.516 12.8061 198.516 20.7741C198.516 28.6461 193.044 34.4061 185.124 34.4061C177.204 34.4061 171.684 28.6461 171.684 20.7741Z" fill="#8710FF"/>
<path d="M229.794 29.1261L214.866 3.2061H209.346V38.2461H214.338V11.8461L229.266 38.2461H234.786V3.2061H229.794V29.1261Z" fill="#8710FF"/>
<path d="M0.175659 36.4974H5.21566V21.1374H19.8557V16.3374H5.21566V6.25744H21.2957V1.45744H0.175659V36.4974Z" fill="black"/>
<path d="M45.2863 26.1774C45.2863 29.7774 42.1663 32.6574 38.0863 32.6574C33.7663 32.6574 31.3663 29.7774 31.3663 26.1774V1.45744H26.3263V25.9374C26.3263 32.6574 30.6463 37.4574 37.3663 37.4574C40.0063 37.4574 43.8463 36.2574 45.2863 34.5774L45.5263 34.3374L45.7663 34.5774L46.4863 36.4974H50.3263V1.45744H45.2863V26.1774Z" fill="black"/>
<path d="M78.4674 27.3774L63.5394 1.45744H58.0194V36.4974H63.0114V10.0974L77.9394 36.4974H83.4594V1.45744H78.4674V27.3774Z" fill="black"/>
<path d="M89.24 19.0254C89.24 29.2974 96.92 37.4574 107.48 37.4574C112.76 37.4574 118.04 35.0574 121.4 30.7374L118.04 27.3774C115.64 30.7374 112.28 32.7054 107.72 32.7054C99.32 32.7054 94.328 26.7054 94.328 18.9774C94.328 11.2494 99.32 5.24944 107.48 5.24944C112.04 5.24944 115.4 7.21744 117.8 10.5774L121.16 7.21744C117.8 2.89744 112.52 0.497437 107.24 0.497437C96.92 0.497437 89.24 8.70544 89.24 19.0254Z" fill="black"/>
<path d="M138.115 6.25744H147.811V1.45744H123.331V6.25744H133.027V36.4974H138.115V6.25744Z" fill="black"/>
<path d="M151.904 36.4974H158.624V31.6974H157.808V6.25744H158.624V1.45744H151.904V6.25744H152.72V31.6974H151.904V36.4974Z" fill="black"/>
<path d="M164.146 18.9774C164.146 29.2014 172.402 37.4574 182.626 37.4574C192.85 37.4574 201.106 29.2014 201.106 18.9774C201.106 8.75344 192.85 0.497437 182.626 0.497437C172.402 0.497437 164.146 8.75344 164.146 18.9774ZM169.186 19.0254C169.186 11.0574 174.706 5.29744 182.626 5.29744C190.546 5.29744 196.018 11.0574 196.018 19.0254C196.018 26.8974 190.546 32.6574 182.626 32.6574C174.706 32.6574 169.186 26.8974 169.186 19.0254Z" fill="black"/>
<path d="M227.296 27.3774L212.368 1.45744H206.848V36.4974H211.84V10.0974L226.768 36.4974H232.288V1.45744H227.296V27.3774Z" fill="black"/>
</svg>
