<svg width="41" height="43" viewBox="0 0 41 43" fill="none" xmlns="http://www.w3.org/2000/svg">
<path d="M3.04618 42.8806C7.36618 42.8806 10.2462 40.0006 10.2462 35.6806V3.04064H5.20618V36.1606C5.20618 37.3606 4.29418 38.0806 3.04618 38.0806H2.08618V42.4006L3.04618 42.8806Z" fill="#8710FF"/>
<path d="M39.0593 12.1606C39.0593 6.40063 34.0193 2.17664 27.7793 2.17664C21.7313 2.17664 16.9793 6.16063 16.9793 11.6806C16.9793 17.6806 21.0593 20.8006 25.6193 22.1926C26.8193 22.5766 28.3073 22.9606 29.4593 23.2006C31.8593 23.6806 34.9793 24.8806 34.9793 28.4806C34.9793 31.8406 32.3393 34.0966 28.2593 34.0966C24.6593 34.0966 20.9633 31.3126 21.0593 26.5606L16.0193 28.4806C16.1153 33.8566 21.7313 38.9446 28.2593 38.9446C35.6993 38.9446 40.0193 33.7606 40.0193 28.4806C40.0193 22.4806 36.1793 19.5046 31.3793 18.3526C30.1313 18.0646 28.8353 17.7766 27.5393 17.4406C23.6993 16.4326 22.0193 14.5606 22.0193 11.9206C22.0193 9.04064 24.2273 6.88064 27.7793 6.88064C31.1393 6.88064 33.7793 9.28063 33.7793 12.1606H39.0593Z" fill="#8710FF"/>
<path d="M1.47196 41.1658C5.79196 41.1658 8.67196 38.2858 8.67196 33.9658V1.32579H3.63196V34.4458C3.63196 35.6458 2.71996 36.3658 1.47196 36.3658H0.511963V40.6858L1.47196 41.1658Z" fill="black"/>
<path d="M37.4851 10.4458C37.4851 4.68579 32.4451 0.461792 26.2051 0.461792C20.1571 0.461792 15.4051 4.44579 15.4051 9.96579C15.4051 15.9658 19.4851 19.0858 24.0451 20.4778C25.2451 20.8618 26.7331 21.2458 27.8851 21.4858C30.2851 21.9658 33.4051 23.1658 33.4051 26.7658C33.4051 30.1258 30.7651 32.3818 26.6851 32.3818C23.0851 32.3818 19.3891 29.5978 19.4851 24.8458L14.4451 26.7658C14.5411 32.1418 20.1571 37.2298 26.6851 37.2298C34.1251 37.2298 38.4451 32.0458 38.4451 26.7658C38.4451 20.7658 34.6051 17.7898 29.8051 16.6378C28.5571 16.3498 27.2611 16.0618 25.9651 15.7258C22.1251 14.7178 20.4451 12.8458 20.4451 10.2058C20.4451 7.32579 22.6531 5.16579 26.2051 5.16579C29.5651 5.16579 32.2051 7.56579 32.2051 10.4458H37.4851Z" fill="black"/>
</svg>
