<svg width="248" height="156" viewBox="0 0 248 156" fill="none" xmlns="http://www.w3.org/2000/svg">
<path d="M7.99999 107.796L65.656 120.505L68.7556 106.443L25.8652 96.9886L45.393 8.39526L30.6274 5.14062L7.99999 107.796Z" fill="#8710FF"/>
<path d="M82.5694 124.233L144.444 137.872L147.544 123.809L100.435 113.425L107.254 82.4879L152.957 92.5617L156.056 78.4993L110.353 68.4254L116.863 38.8943L163.972 49.2781L167.072 35.2157L105.197 21.5772L82.5694 124.233Z" fill="#8710FF"/>
<path d="M215.766 60.6945L244.172 66.9558L247.271 52.8934L175.553 37.0852L172.453 51.1476L200.859 57.4089L181.332 146.002L196.238 149.288L215.766 60.6945Z" fill="#8710FF"/>
<path d="M0.801689 103.074L58.4577 115.782L61.5573 101.72L18.6669 92.266L38.1947 3.67261L23.4291 0.417969L0.801689 103.074Z" fill="black"/>
<path d="M75.3711 119.51L137.246 133.149L140.345 119.086L93.2363 108.703L100.056 77.7652L145.758 87.8391L148.858 73.7766L103.155 63.7028L109.664 34.1717L156.774 44.5555L159.873 30.4931L97.9985 16.8546L75.3711 119.51Z" fill="black"/>
<path d="M208.567 55.9719L236.973 62.2332L240.073 48.1708L168.355 32.3625L165.255 46.425L193.661 52.6863L174.133 141.28L189.04 144.565L208.567 55.9719Z" fill="black"/>
</svg>
