<svg width="365" height="252" viewBox="0 0 365 252" fill="none" xmlns="http://www.w3.org/2000/svg">
<path d="M26.2071 164.36L29.2479 185.584L130.301 216.502L127.26 195.278L46.5697 171.605L116.579 120.728L113.576 99.7689L26.2071 164.36Z" fill="#8710FF"/>
<path d="M157.546 230.68L179.051 226.836L167.268 144.593L200.037 138.736C226.662 133.978 242.888 107.95 238.136 74.7876C233.385 41.6248 210.698 22.5512 184.073 27.3094L129.799 37.0088L157.546 230.68ZM163.467 118.062L155.105 59.6959L188.898 53.6566C201.186 51.4606 213.781 58.7331 216.632 78.6308C219.483 98.5285 209.549 109.827 197.26 112.023L163.467 118.062Z" fill="#8710FF"/>
<path d="M250.773 75.2503L253.776 96.2092L334.299 120.184L264.457 170.759L267.498 191.983L354.867 127.392L351.826 106.168L250.773 75.2503Z" fill="#8710FF"/>
<path d="M15.5174 164.36L18.5582 185.584L119.611 216.502L116.57 195.278L35.88 171.605L105.889 120.728L102.887 99.7689L15.5174 164.36Z" fill="black"/>
<path d="M146.857 230.68L168.361 226.836L156.578 144.593L189.347 138.736C215.972 133.978 232.198 107.95 227.447 74.7876C222.695 41.6248 200.008 22.5512 173.383 27.3094L119.109 37.0088L146.857 230.68ZM152.777 118.062L144.415 59.6959L178.208 53.6566C190.497 51.4606 203.091 58.7331 205.942 78.6308C208.793 98.5285 198.859 109.827 186.57 112.023L152.777 118.062Z" fill="black"/>
<path d="M240.083 75.2503L243.086 96.2092L323.61 120.184L253.767 170.759L256.808 191.983L344.177 127.392L341.136 106.168L240.083 75.2503Z" fill="black"/>
</svg>
