<svg width="134" height="41" viewBox="0 0 134 41" fill="none" xmlns="http://www.w3.org/2000/svg">
<path d="M20.1926 11.3661L13.7126 30.5181L8.0006 4.16606H2.9126L10.5926 39.2061H15.6326L22.8326 18.9021L30.0326 39.2061H35.0726L42.7526 4.16606H37.6646L31.9526 30.4701L25.5206 11.3661H20.1926Z" fill="#8710FF"/>
<path d="M44.7007 21.6861C44.7007 31.9101 52.9567 40.1661 63.1807 40.1661C73.4047 40.1661 81.6607 31.9101 81.6607 21.6861C81.6607 11.4621 73.4047 3.20605 63.1807 3.20605C52.9567 3.20605 44.7007 11.4621 44.7007 21.6861ZM49.7407 21.7341C49.7407 13.7661 55.2607 8.00606 63.1807 8.00606C71.1007 8.00606 76.5727 13.7661 76.5727 21.7341C76.5727 29.6061 71.1007 35.3661 63.1807 35.3661C55.2607 35.3661 49.7407 29.6061 49.7407 21.7341Z" fill="#8710FF"/>
<path d="M100.864 11.3661L94.3845 30.5181L88.6725 4.16606H83.5845L91.2645 39.2061H96.3045L103.504 18.9021L110.704 39.2061H115.744L123.424 4.16606H118.336L112.624 30.4701L106.192 11.3661H100.864Z" fill="#8710FF"/>
<path d="M129.67 31.0461H130.63L132.55 16.6461L133.03 4.16606H127.27L127.75 16.6461L129.67 31.0461ZM127.27 39.2061H133.03V33.4461H127.27V39.2061Z" fill="#8710FF"/>
<path d="M17.9106 9.08395L11.4306 28.236L5.71862 1.88395H0.630615L8.31062 36.924H13.3506L20.5506 16.62L27.7506 36.924H32.7906L40.4706 1.88395H35.3826L29.6706 28.188L23.2386 9.08395H17.9106Z" fill="black"/>
<path d="M42.4187 19.404C42.4187 29.628 50.6747 37.884 60.8987 37.884C71.1227 37.884 79.3787 29.628 79.3787 19.404C79.3787 9.17995 71.1227 0.92395 60.8987 0.92395C50.6747 0.92395 42.4187 9.17995 42.4187 19.404ZM47.4587 19.452C47.4587 11.484 52.9787 5.72395 60.8987 5.72395C68.8187 5.72395 74.2907 11.484 74.2907 19.452C74.2907 27.324 68.8187 33.084 60.8987 33.084C52.9787 33.084 47.4587 27.324 47.4587 19.452Z" fill="black"/>
<path d="M98.5825 9.08395L92.1025 28.236L86.3905 1.88395H81.3025L88.9825 36.924H94.0225L101.222 16.62L108.422 36.924H113.462L121.142 1.88395H116.054L110.342 28.188L103.91 9.08395H98.5825Z" fill="black"/>
<path d="M127.388 28.764H128.348L130.268 14.364L130.748 1.88395H124.988L125.468 14.364L127.388 28.764ZM124.988 36.924H130.748V31.164H124.988V36.924Z" fill="black"/>
</svg>
